<?xml version="1.0" encoding="UTF-8"?>
<svg viewBox="0 0 300 300" xmlns="http://www.w3.org/2000/svg">
 <g transform="matrix(4.3453 0 0 4.3453 -2488.6 -1135.3)">
  <g transform="translate(-7.558 -106.36)">
   <path transform="matrix(.73873 0 0 .73873 168.61 57.13)" d="m602.84 430.03c-1.2728 0.19714-2.3916 0.94937-3.0312 2.0625l-35.625 61.719c-0.74472 1.297-0.7568 2.9127 0 4.2188s2.1647 2.1262 3.6875 2.125h71.25c1.5229 0.00117 2.9304-0.81842 3.6875-2.125s0.74471-2.9218 0-4.2188l-35.625-61.719c-0.87568-1.525-2.6106-2.334-4.3438-2.0625z" fill="#fff000"/>
   <path d="m614.1875,376.09375c-.50887.07881-.94216.38556-1.1875.8125l-26.5,45.90625c-.29022.50547-.2911,1.15388 0,1.65625 .29591.51068.84227.8442 1.4375.84375h53c.59521.00045 1.14158-.33306 1.4375-.84375 .29108-.50236.29023-1.15078 0-1.65625l-26.5-45.90625c-.3402-.59244-.99812-.9205-1.6875-.8125zm.25,5.28125 22.5,39.625h-45.03125l22.53125-39.625z"/>
  </g>
  <path d="m603.32136,313.37278c-.15148-.18252-.02-.48851.2978-.69306 .52903-.34051.61698-.42298.72382-.67867 .05997-.14354.09871-.3298.08607-.41391-.02123-.14132-.04964-.13253-.37413.11571l-.35117.26865-.45929-.95222c-.63818-1.3231-1.18007-2.27442-2.009-3.5269l-.71074-1.07392 .08329-.55999c.09157-.61566.29405-1.27148.56769-1.83871 .09777-.20267.15032-.36849.11677-.36849s-.41039.12084-.83741.26854c-.85394.29536-1.2846.51901-1.55326.80665-.16275.17425-.16933.21146-.08427.47613 .2029.63133.81062,2.0062 1.43708,3.25114 .36343.72224.66109,1.33714.66148,1.36644s-.13305.09334-.29651.14231l-.29721.08905 .00748.45799c.00411.2519-.01587.56362-.04441.69271-.0484.21889-.07817.2374-.4419.2747-.33667.03452-.41435.01632-.56803-.13305l-.17803-.17305-.21558.24553c-.43659.49725-.78433.51244-1.7358.07582-.34315-.15746-.43147-.23338-.43147-.3709 0-.28757.19636-.37888.81477-.37888 .55865,0 .56672-.00279.73854-.25581 .09554-.1407.16501-.26359.15438-.27308s-.21347.0184-.45076.062-.44501.06518-.4616.04796-.08633-.50404-.15497-1.08184-.22576-1.77653-.34913-2.66386-.22788-1.93412-.23222-2.3262c-.01551-1.40166.33294-1.7952 3.14889-3.55635 .38176-.23876.6941-.47834.6941-.53241s-.1191-.27531-.26468-.49163c-.25543-.37957-.26003-.39846-.13159-.54038 .20081-.2219 1.27353-.92103 2.55804-1.66719 1.14251-.66366 1.15037-.67006 1.44701-1.17798 .16404-.28088.50096-.74562.7487-1.03276l.45045-.52206-.28413-.19414c-.77121-.52695-1.93013-.62115-3.67462-.29869-1.44881.26781-1.32023.28026-1.39855-.13536-.03694-.19604-.09863-.35644-.13708-.35644s-.20158.06718-.36251.14928c-.21873.11159-.35533.26629-.54104.61274-.13664.25491-.27935.46632-.31714.4698s-.10531-.14312-.15007-.32578-.11803-.344-.16282-.35856c-.09268-.03013-.32179.43831-.39822.81419-.03567.17543-.09796.25847-.20562.27412-.12228.01778-.18185-.04929-.28599-.32196-.17477-.45764-.10982-.6741.32961-1.09842 .3371-.32551 1.60806-1.04083 1.84932-1.04083 .05739,0 .19543-.10222.30675-.22715 .22875-.25674.69503-.41361 1.44961-.4877 1.19432-.11727 4.30438.38678 5.50438.89209 .25343.10672.28378.10766.24538.00759-.0775-.40679.04931-.11878.62119.26467 .16998-.00104.82226-.32179 1.1329-.55709l.26263-.19894 .0488.17203c.02684.09461.0524.40839.0568.69729l.008.52527 .58103.17231 .74301.21379c.1294.03314.27281-.07612.71287-.54309 .30298-.32152.60997-.64566.68219-.72031s.23198-.13572.35501-.13572c.17215,0 .23387.04059.2679.17617 .04059.16172.07779.17431.45333.15348 .22501-.01249.43859-.04092.47462-.06319 .07027-.04343.15627.12548.15627.30692 0,.06098.13561.38745.30135.72549 .39979.81537.56385,1.91662.37664,2.52809-.05725.18697-.05782.18673-.17336-.07417l-.11592-.26177-.05043.29929c-.02773.16461-.07757.38371-.11075.48688l-.06033.1876-.07552-.1876-.07551-.18759-.05553.21348c-.04057.15598-.07276.1863-.11949.11256-.0445-.07021-.06432-.03948-.06512.101-.0023.40528-.1984.32806-.30559-.12034-.04068-.17013-.05743-.188-.06307-.06726-.01354.28979-.14758.26216-.24101-.04968-.04982-.16628-.119-.30232-.15374-.30232-.25546,0 .37933,1.17901 1.29286,2.40123 2.22549,2.97753 3.0812,4.66984 2.96583,5.86541-.05054.52372-.25463.98496-.40953.92552-.06105-.02343-.20055.04482-.31422.15372-.1809.17331-.22268.18446-.36297.09684-.18918-.11814-.19983-.35758-.04449-1.00089 .05979-.24763.10924-.51564.10988-.59559 .00103-.12783-.02602-.1193-.22444.07079-.32956.31574-.4101.19077-.30667-.47585 .10996-.70874.1097-.7107-.08678-.66301-.13992.03396-.22668-.03842-.50651-.42259-.18572-.25497-.93-1.20679-1.65395-2.11516s-1.52745-1.93017-1.78554-2.27066-.49307-.61898-.52217-.61887c-.1544.00059-1.91142.47846-2.54195.69135l-.72985.24643-.39333.67535c-.36384.62472-.39366.71259-.39783,1.17214-.00247.27323.06442.89372.14867,1.37886s.14297.89227.13051.90473-.20801-.04132-.43456-.11952c-.61465-.21215-.67484-.19579-1.01222.27515-.40194.56107-1.30692,1.41586-2.05101,1.93726l-.6072.42547 .57881.72736c.6451.81065 1.58718,2.18307 2.19261,3.19419l.39873.6659-.18093.13909c-.09951.0765-.20626.13985-.23721.14076-.13504.00401-.03623.1519.19837.29689 .25824.1596.49574.54723.49574.80912 0,.16162-.48693.47147-.74091.47147-.15762,0-.45586.38316-.56421.72485-.08465.26695-.19923.30933-.98606.36474-.65391.04605-.76659.03651-.8571-.07254z"/>
  <path d="m617.46767,306.50879c-.04708-.01005-.09832.02399-.10859.07214l-.24846,1.16483-.07924-.0169c-.2931-.06252-.58758.13313-.65151.43288l-.64168,3.00828c-.06394.29975.12725.5884.42034.65092l.77256.16479c.29311.06252.58542-.12299.64936-.42275l.64167-3.00828c.06394-.29975-.12508-.59854-.41818-.66105l-.06933-.01479 .24846-1.16483c.01027-.04815-.0127-.09802-.05979-.10806l-.45561-.09718z" stroke="#000" stroke-width=".02301"/>
 </g>
</svg>
